<?xml version="1.0" encoding="UTF-8" standalone="no"?>
<!-- Created with Inkscape (http://www.inkscape.org/) -->

<svg
   xmlns:dc="http://purl.org/dc/elements/1.1/"
   xmlns:cc="http://creativecommons.org/ns#"
   xmlns:rdf="http://www.w3.org/1999/02/22-rdf-syntax-ns#"
   xmlns:svg="http://www.w3.org/2000/svg"
   xmlns="http://www.w3.org/2000/svg"
   xmlns:sodipodi="http://sodipodi.sourceforge.net/DTD/sodipodi-0.dtd"
   xmlns:inkscape="http://www.inkscape.org/namespaces/inkscape"
   width="85.409698mm"
   height="22.161503mm"
   viewBox="0 0 85.409698 22.161503"
   version="1.1"
   id="svg8"
   inkscape:version="0.92.5 (2060ec1f9f, 2020-04-08)"
   sodipodi:docname="cicla.svg">
  <defs
     id="defs2" />
  <sodipodi:namedview
     id="base"
     pagecolor="#ffffff"
     bordercolor="#666666"
     borderopacity="1.0"
     inkscape:pageopacity="0.0"
     inkscape:pageshadow="2"
     inkscape:zoom="1.979899"
     inkscape:cx="349.44121"
     inkscape:cy="13.538307"
     inkscape:document-units="mm"
     inkscape:current-layer="text842"
     showgrid="false"
     showguides="true"
     inkscape:guide-bbox="true"
     inkscape:window-width="1920"
     inkscape:window-height="1017"
     inkscape:window-x="1998"
     inkscape:window-y="-8"
     inkscape:window-maximized="1"
     fit-margin-top="0"
     fit-margin-left="0"
     fit-margin-right="0"
     fit-margin-bottom="0" />
  <metadata
     id="metadata5">
    <rdf:RDF>
      <cc:Work
         rdf:about="">
        <dc:format>image/svg+xml</dc:format>
        <dc:type
           rdf:resource="http://purl.org/dc/dcmitype/StillImage" />
        <dc:title></dc:title>
      </cc:Work>
    </rdf:RDF>
  </metadata>
  <g
     inkscape:label="Layer 1"
     inkscape:groupmode="layer"
     id="layer1"
     transform="translate(-51.684465,-88.822107)">
    <g
       aria-label="cicla"
       style="font-style:normal;font-variant:normal;font-weight:normal;font-stretch:normal;font-size:10.58333302px;line-height:1.25;font-family:Veraus;-inkscape-font-specification:Veraus;letter-spacing:0px;word-spacing:0px;fill:#000000;fill-opacity:1;stroke:none;stroke-width:0.26458332"
       id="text821">
      <path
         d="m 61.104153,106.77916 h -9.419688 v -9.419685 h 9.419688 v 1.883937 h -7.535751 v 5.651818 h 7.535751 z"
         style="font-style:normal;font-variant:normal;font-weight:normal;font-stretch:normal;font-size:25.39999962px;font-family:'Adelphi Plain';-inkscape-font-specification:'Adelphi Plain';fill:#32cd32;fill-opacity:1;stroke-width:0.17661914"
         id="path823"
         inkscape:connector-curvature="0" />
      <path
         d="M 64.860988,95.018002 H 62.97705 v -1.900554 h 1.883938 z m 0,11.761158 H 62.97705 v -9.502771 h 1.883938 z"
         style="font-style:normal;font-variant:normal;font-weight:normal;font-stretch:normal;font-size:25.39999962px;font-family:'Adelphi Plain';-inkscape-font-specification:'Adelphi Plain';fill:#32cd32;fill-opacity:1;stroke-width:0.17739636"
         id="path825"
         inkscape:connector-curvature="0"
         sodipodi:nodetypes="cccccccccc" />
      <path
         d="m 76.171973,106.77916 h -9.419688 v -9.419685 h 9.419688 v 1.883937 h -7.535751 v 5.651818 h 7.535751 z"
         style="font-style:normal;font-variant:normal;font-weight:normal;font-stretch:normal;font-size:25.39999962px;font-family:'Adelphi Plain';-inkscape-font-specification:'Adelphi Plain';fill:#32cd32;fill-opacity:1;stroke-width:0.17661914"
         id="path827"
         inkscape:connector-curvature="0" />
      <path
         d="m 84.335877,106.77916 h -6.291006 v -9.402861 h 1.883938 v 7.489301 h 4.407068 z"
         style="font-style:normal;font-variant:normal;font-weight:normal;font-stretch:normal;font-size:25.39999962px;font-family:'Adelphi Plain';-inkscape-font-specification:'Adelphi Plain';fill:#32cd32;fill-opacity:1;stroke-width:0.14913708"
         id="path829"
         inkscape:connector-curvature="0"
         sodipodi:nodetypes="ccccccc" />
      <path
         d="M 106.38604,110.98361 H 84.086193 V 97.32887 H 104.45854 V 90.749597 H 84.086193 v -1.92749 h 22.299847 z m -1.9275,-1.92749 V 99.256381 H 86.013683 v 9.799739 z"
         style="font-style:normal;font-variant:normal;font-weight:normal;font-stretch:normal;font-size:25.39999962px;font-family:'Adelphi Plain';-inkscape-font-specification:'Adelphi Plain';fill:#32cd32;fill-opacity:1;stroke-width:0.41552815"
         id="path831"
         inkscape:connector-curvature="0"
         sodipodi:nodetypes="cccccccccccccc" />
      <g
         aria-label="aplication 
for encrypting 
with a key"
         style="font-style:normal;font-variant:normal;font-weight:normal;font-stretch:normal;font-size:13.47488594px;font-family:Veraus;-inkscape-font-specification:Veraus;letter-spacing:0px;word-spacing:0px;fill:#000000;fill-opacity:1;stroke:none;stroke-width:0.08913076"
         id="text842">
        <path
           d="m 110.71392,95.376701 v -0.19902 q -0.30099,0.253298 -0.64311,0.253298 -0.24836,0 -0.38817,-0.125004 -0.13981,-0.126649 -0.13981,-0.309221 0,-0.200664 0.18421,-0.350341 0.18423,-0.149677 0.53786,-0.149677 0.0954,0 0.20724,0.01316 0.11184,0.01151 0.24178,0.03784 v -0.223701 q 0,-0.11349 -0.10526,-0.197375 -0.10527,-0.08388 -0.3158,-0.08388 -0.16119,0 -0.45233,0.09375 -0.0526,0.01645 -0.0675,0.01645 -0.0264,0 -0.046,-0.01974 -0.0181,-0.01974 -0.0181,-0.04935 0,-0.02796 0.0164,-0.0444 0.0231,-0.02466 0.18587,-0.06743 0.25658,-0.06908 0.38817,-0.06908 0.26152,0 0.40791,0.129939 0.14639,0.128295 0.14639,0.291129 v 0.914501 h 0.18421 q 0.051,0 0.0724,0.01974 0.0215,0.0181 0.0215,0.04935 0,0.02961 -0.0215,0.04935 -0.0215,0.01974 -0.0724,0.01974 z m 0,-0.687523 q -0.097,-0.02796 -0.20559,-0.04112 -0.10856,-0.01316 -0.22863,-0.01316 -0.301,0 -0.47042,0.129939 -0.12829,0.09704 -0.12829,0.231916 0,0.125004 0.097,0.210533 0.0987,0.08553 0.28621,0.08553 0.17928,0 0.33224,-0.07072 0.15461,-0.07238 0.31744,-0.228626 z"
           style="font-style:normal;font-variant:normal;font-weight:normal;font-stretch:normal;font-size:4.93888903px;line-height:0;font-family:'Courier New';-inkscape-font-specification:'Courier New';text-align:start;letter-spacing:0px;text-anchor:start;fill:#ffffff;stroke-width:0.06079108"
           id="path864"
           inkscape:connector-curvature="0" />
        <path
           d="m 111.81593,93.95231 v 0.251653 q 0.12337,-0.149676 0.26482,-0.225337 0.14145,-0.07566 0.33389,-0.07566 0.20396,0 0.37666,0.0954 0.17271,0.0954 0.26646,0.266456 0.0954,0.169414 0.0954,0.356921 0,0.297708 -0.21383,0.509886 -0.21218,0.210534 -0.52304,0.210534 -0.37009,0 -0.60036,-0.300997 v 0.832265 h 0.33554 q 0.0494,0 0.0707,0.0181 0.0214,0.01974 0.0214,0.05099 0,0.02961 -0.0214,0.04935 -0.0215,0.01974 -0.0707,0.01974 h -0.65955 q -0.0494,0 -0.0707,-0.01974 -0.0215,-0.0181 -0.0215,-0.04935 0,-0.03125 0.0215,-0.05099 0.0214,-0.0181 0.0707,-0.0181 h 0.18585 v -1.781312 h -0.18585 q -0.0494,0 -0.0707,-0.01974 -0.0215,-0.01974 -0.0215,-0.05099 0,-0.02961 0.0215,-0.04935 0.0214,-0.01974 0.0707,-0.01974 z m 1.19742,0.669431 q 0,-0.238495 -0.17435,-0.407909 -0.17271,-0.171059 -0.42271,-0.171059 -0.25166,0 -0.426,0.171059 -0.17436,0.171058 -0.17436,0.407909 0,0.238495 0.17436,0.409554 0.17434,0.171058 0.426,0.171058 0.24836,0 0.42271,-0.169414 0.17435,-0.171058 0.17435,-0.411198 z"
           style="font-style:normal;font-variant:normal;font-weight:normal;font-stretch:normal;font-size:4.93888903px;line-height:0;font-family:'Courier New';-inkscape-font-specification:'Courier New';text-align:start;letter-spacing:0px;text-anchor:start;fill:#ffffff;stroke-width:0.06079108"
           id="path866"
           inkscape:connector-curvature="0" />
        <path
           d="m 114.42623,93.312484 v 1.926055 h 0.54278 q 0.051,0 0.0724,0.01974 0.0214,0.0181 0.0214,0.04935 0,0.02961 -0.0214,0.04935 -0.0214,0.01974 -0.0724,0.01974 h -1.22373 q -0.0494,0 -0.0707,-0.01974 -0.0215,-0.01974 -0.0215,-0.04935 0,-0.03125 0.0215,-0.04935 0.0214,-0.01974 0.0707,-0.01974 h 0.54278 v -1.786247 h -0.39804 q -0.0494,0 -0.0724,-0.01974 -0.0214,-0.01974 -0.0214,-0.05099 0,-0.02961 0.0214,-0.04935 0.0215,-0.01974 0.0724,-0.01974 z"
           style="font-style:normal;font-variant:normal;font-weight:normal;font-stretch:normal;font-size:4.93888903px;line-height:0;font-family:'Courier New';-inkscape-font-specification:'Courier New';text-align:start;letter-spacing:0px;text-anchor:start;fill:#ffffff;stroke-width:0.06079108"
           id="path868"
           inkscape:connector-curvature="0" />
        <path
           d="m 116.44438,93.243403 v 0.35692 h -0.20394 v -0.35692 z m 0.004,0.708907 v 1.286229 h 0.54279 q 0.0509,0 0.0724,0.01974 0.0215,0.0181 0.0215,0.04935 0,0.02961 -0.0215,0.04935 -0.0215,0.01974 -0.0724,0.01974 h -1.22374 q -0.0494,0 -0.0707,-0.01974 -0.0214,-0.01974 -0.0214,-0.04935 0,-0.03125 0.0214,-0.04935 0.0214,-0.01974 0.0707,-0.01974 h 0.54279 v -1.146422 h -0.40298 q -0.0493,0 -0.0724,-0.01974 -0.0215,-0.01974 -0.0215,-0.04935 0,-0.03125 0.0215,-0.05099 0.0214,-0.01974 0.0724,-0.01974 z"
           style="font-style:normal;font-variant:normal;font-weight:normal;font-stretch:normal;font-size:4.93888903px;line-height:0;font-family:'Courier New';-inkscape-font-specification:'Courier New';text-align:start;letter-spacing:0px;text-anchor:start;fill:#ffffff;stroke-width:0.06079108"
           id="path870"
           inkscape:connector-curvature="0" />
        <path
           d="m 118.97244,94.092117 v -0.04605 q 0,-0.05099 0.0198,-0.07237 0.0198,-0.02138 0.0494,-0.02138 0.0313,0 0.051,0.02138 0.0198,0.02138 0.0198,0.07237 v 0.312511 q -0.002,0.05099 -0.0215,0.07237 -0.0181,0.02138 -0.0493,0.02138 -0.028,0 -0.0477,-0.0181 -0.0181,-0.01974 -0.0215,-0.06414 -0.01,-0.11678 -0.15462,-0.222048 -0.14309,-0.105266 -0.38652,-0.105266 -0.30758,0 -0.46712,0.19244 -0.15954,0.192442 -0.15954,0.440805 0,0.268102 0.17599,0.44245 0.17598,0.174348 0.4556,0.174348 0.16119,0 0.32731,-0.05921 0.16777,-0.05921 0.30265,-0.190796 0.0345,-0.03289 0.0609,-0.03289 0.028,0 0.046,0.01974 0.0197,0.0181 0.0197,0.04605 0,0.07072 -0.16612,0.179283 -0.2681,0.175993 -0.59706,0.175993 -0.33389,0 -0.54937,-0.212179 -0.21382,-0.213823 -0.21382,-0.541137 0,-0.333893 0.21877,-0.554295 0.22039,-0.220403 0.55428,-0.220403 0.31746,0 0.53292,0.189152 z"
           style="font-style:normal;font-variant:normal;font-weight:normal;font-stretch:normal;font-size:4.93888903px;line-height:0;font-family:'Courier New';-inkscape-font-specification:'Courier New';text-align:start;letter-spacing:0px;text-anchor:start;fill:#ffffff;stroke-width:0.06079108"
           id="path872"
           inkscape:connector-curvature="0" />
        <path
           d="m 120.81296,95.376701 v -0.19902 q -0.301,0.253298 -0.64311,0.253298 -0.24836,0 -0.38817,-0.125004 -0.13981,-0.126649 -0.13981,-0.309221 0,-0.200664 0.18421,-0.350341 0.18422,-0.149677 0.53785,-0.149677 0.0954,0 0.20725,0.01316 0.11184,0.01151 0.24178,0.03784 v -0.223701 q 0,-0.11349 -0.10527,-0.197375 -0.10526,-0.08388 -0.31579,-0.08388 -0.1612,0 -0.45233,0.09375 -0.0526,0.01645 -0.0675,0.01645 -0.0264,0 -0.046,-0.01974 -0.0181,-0.01974 -0.0181,-0.04935 0,-0.02796 0.0164,-0.0444 0.0231,-0.02466 0.18586,-0.06743 0.25659,-0.06908 0.38818,-0.06908 0.26152,0 0.40791,0.129939 0.14638,0.128295 0.14638,0.291129 v 0.914501 h 0.18422 q 0.051,0 0.0724,0.01974 0.0215,0.0181 0.0215,0.04935 0,0.02961 -0.0215,0.04935 -0.0215,0.01974 -0.0724,0.01974 z m 0,-0.687523 q -0.097,-0.02796 -0.2056,-0.04112 -0.10855,-0.01316 -0.22863,-0.01316 -0.30099,0 -0.47041,0.129939 -0.12829,0.09704 -0.12829,0.231916 0,0.125004 0.097,0.210533 0.0987,0.08553 0.2862,0.08553 0.17928,0 0.33224,-0.07072 0.15462,-0.07238 0.31745,-0.228626 z"
           style="font-style:normal;font-variant:normal;font-weight:normal;font-stretch:normal;font-size:4.93888903px;line-height:0;font-family:'Courier New';-inkscape-font-specification:'Courier New';text-align:start;letter-spacing:0px;text-anchor:start;fill:#ffffff;stroke-width:0.06079108"
           id="path874"
           inkscape:connector-curvature="0" />
        <path
           d="m 122.15183,93.95231 h 0.75002 q 0.0493,0 0.0707,0.01974 0.0214,0.01974 0.0214,0.05099 0,0.02961 -0.0214,0.04935 -0.0215,0.01974 -0.0707,0.01974 h -0.75002 v 0.91944 q 0,0.12007 0.0954,0.200665 0.097,0.0806 0.28291,0.0806 0.1398,0 0.30264,-0.04112 0.16283,-0.04276 0.2533,-0.0954 0.0329,-0.02138 0.0542,-0.02138 0.0264,0 0.046,0.02138 0.0198,0.01974 0.0198,0.0477 0,0.02467 -0.0214,0.04605 -0.0526,0.05428 -0.25658,0.118425 -0.20231,0.0625 -0.38818,0.0625 -0.24178,0 -0.38488,-0.113491 -0.1431,-0.113491 -0.1431,-0.305931 V 94.092127 H 121.757 q -0.0493,0 -0.0707,-0.01974 -0.0215,-0.01974 -0.0215,-0.05099 0,-0.02961 0.0215,-0.04935 0.0214,-0.01974 0.0707,-0.01974 h 0.25494 v -0.407909 q 0,-0.04935 0.0198,-0.07072 0.0198,-0.02139 0.0493,-0.02139 0.0313,0 0.051,0.02139 0.0198,0.02138 0.0198,0.07072 z"
           style="font-style:normal;font-variant:normal;font-weight:normal;font-stretch:normal;font-size:4.93888903px;line-height:0;font-family:'Courier New';-inkscape-font-specification:'Courier New';text-align:start;letter-spacing:0px;text-anchor:start;fill:#ffffff;stroke-width:0.06079108"
           id="path876"
           inkscape:connector-curvature="0" />
        <path
           d="m 124.52361,93.243403 v 0.35692 h -0.20395 v -0.35692 z m 0.004,0.708907 v 1.286229 h 0.54279 q 0.051,0 0.0724,0.01974 0.0215,0.0181 0.0215,0.04935 0,0.02961 -0.0215,0.04935 -0.0215,0.01974 -0.0724,0.01974 h -1.22374 q -0.0493,0 -0.0707,-0.01974 -0.0214,-0.01974 -0.0214,-0.04935 0,-0.03125 0.0214,-0.04935 0.0214,-0.01974 0.0707,-0.01974 h 0.54279 v -1.146422 h -0.40298 q -0.0494,0 -0.0724,-0.01974 -0.0215,-0.01974 -0.0215,-0.04935 0,-0.03125 0.0215,-0.05099 0.0214,-0.01974 0.0724,-0.01974 z"
           style="font-style:normal;font-variant:normal;font-weight:normal;font-stretch:normal;font-size:4.93888903px;line-height:0;font-family:'Courier New';-inkscape-font-specification:'Courier New';text-align:start;letter-spacing:0px;text-anchor:start;fill:#ffffff;stroke-width:0.06079108"
           id="path878"
           inkscape:connector-curvature="0" />
        <path
           d="m 127.24739,94.667795 q 0,0.3158 -0.22697,0.539492 -0.22534,0.223692 -0.54443,0.223692 -0.32238,0 -0.54772,-0.223692 -0.22534,-0.225336 -0.22534,-0.539492 0,-0.3158 0.22534,-0.539493 0.22534,-0.225336 0.54772,-0.225336 0.31909,0 0.54443,0.223692 0.22697,0.223691 0.22697,0.541137 z m -0.1398,0 q 0,-0.259878 -0.18587,-0.44245 -0.18421,-0.182572 -0.44738,-0.182572 -0.26316,0 -0.44903,0.184216 -0.18421,0.182573 -0.18421,0.440806 0,0.256588 0.18421,0.440805 0.18587,0.184217 0.44903,0.184217 0.26317,0 0.44738,-0.182572 0.18587,-0.184217 0.18587,-0.44245 z"
           style="font-style:normal;font-variant:normal;font-weight:normal;font-stretch:normal;font-size:4.93888903px;line-height:0;font-family:'Courier New';-inkscape-font-specification:'Courier New';text-align:start;letter-spacing:0px;text-anchor:start;fill:#ffffff;stroke-width:0.06079108"
           id="path880"
           inkscape:connector-curvature="0" />
        <path
           d="m 128.04841,93.95231 v 0.208888 q 0.14474,-0.146387 0.26152,-0.20231 0.11678,-0.05592 0.26317,-0.05592 0.1579,0 0.28784,0.06743 0.0921,0.04935 0.16612,0.16448 0.0757,0.113492 0.0757,0.233561 v 0.870097 h 0.11678 q 0.0494,0 0.0707,0.01974 0.0215,0.0181 0.0215,0.04935 0,0.02961 -0.0215,0.04935 -0.0214,0.01974 -0.0707,0.01974 h -0.37007 q -0.051,0 -0.0724,-0.01974 -0.0214,-0.01974 -0.0214,-0.04935 0,-0.03125 0.0214,-0.04935 0.0215,-0.01974 0.0724,-0.01974 h 0.11514 v -0.84707 q 0,-0.146386 -0.10692,-0.246719 -0.1069,-0.101977 -0.28619,-0.101977 -0.13651,0 -0.23685,0.05592 -0.10033,0.05428 -0.2862,0.273036 v 0.866809 h 0.15627 q 0.0493,0 0.0707,0.01974 0.0214,0.0181 0.0214,0.04935 0,0.02961 -0.0214,0.04935 -0.0214,0.01974 -0.0707,0.01974 h -0.45068 q -0.0494,0 -0.0707,-0.01974 -0.0215,-0.01974 -0.0215,-0.04935 0,-0.03125 0.0215,-0.04935 0.0215,-0.01974 0.0707,-0.01974 h 0.15626 v -1.146422 h -0.11678 q -0.0494,0 -0.0707,-0.01974 -0.0214,-0.01974 -0.0214,-0.05099 0,-0.02961 0.0214,-0.04935 0.0215,-0.01974 0.0707,-0.01974 z"
           style="font-style:normal;font-variant:normal;font-weight:normal;font-stretch:normal;font-size:4.93888903px;line-height:0;font-family:'Courier New';-inkscape-font-specification:'Courier New';text-align:start;letter-spacing:0px;text-anchor:start;fill:#ffffff;stroke-width:0.06079108"
           id="path882"
           inkscape:connector-curvature="0" />
        <path
           d="m 109.8645,99.444607 v 1.146423 h 0.60694 q 0.0493,0 0.0707,0.0197 0.0214,0.0181 0.0214,0.0493 0,0.0296 -0.0214,0.0494 -0.0215,0.0197 -0.0707,0.0197 h -1.08064 q -0.0494,0 -0.0707,-0.0197 -0.0215,-0.0197 -0.0215,-0.0494 0,-0.0312 0.0215,-0.0493 0.0214,-0.0197 0.0707,-0.0197 h 0.3339 v -1.146423 h -0.29936 q -0.0494,0 -0.0707,-0.01971 -0.0215,-0.01971 -0.0215,-0.05102 0,-0.0296 0.0215,-0.04938 0.0213,-0.01971 0.0707,-0.01971 h 0.29936 v -0.20889 q 0,-0.174344 0.14145,-0.302643 0.14146,-0.128293 0.37502,-0.128293 0.19572,0 0.41777,0.03622 0.0839,0.01316 0.10033,0.03124 0.0181,0.01808 0.0181,0.04767 0,0.0296 -0.0198,0.04938 -0.0198,0.01808 -0.0526,0.01808 -0.0131,0 -0.0444,-0.0047 -0.24836,-0.03785 -0.41941,-0.03785 -0.18093,0 -0.27962,0.08882 -0.097,0.08883 -0.097,0.202308 v 0.20889 h 0.6464 q 0.0494,0 0.0707,0.01971 0.0214,0.01971 0.0214,0.05102 0,0.0296 -0.0214,0.04938 -0.0215,0.01971 -0.0707,0.01971 z"
           style="font-style:normal;font-variant:normal;font-weight:normal;font-stretch:normal;font-size:4.93888903px;line-height:0;font-family:'Courier New';-inkscape-font-specification:'Courier New';text-align:start;letter-spacing:0px;text-anchor:start;fill:#ffffff;stroke-width:0.06079108"
           id="path884"
           inkscape:connector-curvature="0" />
        <path
           d="m 112.74783,100.02028 q 0,0.3158 -0.22698,0.5395 -0.22534,0.22369 -0.54443,0.22369 -0.32238,0 -0.54772,-0.22369 -0.22534,-0.22534 -0.22534,-0.5395 0,-0.315801 0.22534,-0.539491 0.22534,-0.225334 0.54772,-0.225334 0.31909,0 0.54443,0.22369 0.22698,0.223691 0.22698,0.541135 z m -0.13981,0 q 0,-0.259873 -0.18586,-0.44245 -0.18422,-0.182569 -0.44739,-0.182569 -0.26316,0 -0.44902,0.184213 -0.18421,0.182577 -0.18421,0.440806 0,0.25659 0.18421,0.44081 0.18586,0.18422 0.44902,0.18422 0.26317,0 0.44739,-0.18257 0.18586,-0.18422 0.18586,-0.44246 z"
           style="font-style:normal;font-variant:normal;font-weight:normal;font-stretch:normal;font-size:4.93888903px;line-height:0;font-family:'Courier New';-inkscape-font-specification:'Courier New';text-align:start;letter-spacing:0px;text-anchor:start;fill:#ffffff;stroke-width:0.06079108"
           id="path886"
           inkscape:connector-curvature="0" />
        <path
           d="m 113.8301,99.304794 v 0.348696 q 0.26974,-0.243429 0.40298,-0.312506 0.13487,-0.07073 0.24836,-0.07073 0.12336,0 0.22862,0.08388 0.10693,0.08224 0.10693,0.125005 0,0.03124 -0.0215,0.05265 -0.0198,0.01971 -0.051,0.01971 -0.0164,0 -0.028,-0.0047 -0.0115,-0.0068 -0.0428,-0.03785 -0.0576,-0.05757 -0.10033,-0.07895 -0.0428,-0.02142 -0.0839,-0.02142 -0.0905,0 -0.21876,0.07238 -0.12664,0.07237 -0.4408,0.353633 v 0.756608 h 0.61186 q 0.051,0 0.0724,0.0197 0.0213,0.0181 0.0213,0.0493 0,0.0296 -0.0213,0.0494 -0.0215,0.0197 -0.0724,0.0197 h -1.08392 q -0.0494,0 -0.0707,-0.0181 -0.0215,-0.0197 -0.0215,-0.0494 0,-0.028 0.0198,-0.046 0.0214,-0.0197 0.0724,-0.0197 h 0.33389 v -1.151356 h -0.25494 q -0.0493,0 -0.0707,-0.01971 -0.0213,-0.01971 -0.0213,-0.05102 0,-0.0296 0.0198,-0.04938 0.0214,-0.01971 0.0724,-0.01971 z"
           style="font-style:normal;font-variant:normal;font-weight:normal;font-stretch:normal;font-size:4.93888903px;line-height:0;font-family:'Courier New';-inkscape-font-specification:'Courier New';text-align:start;letter-spacing:0px;text-anchor:start;fill:#ffffff;stroke-width:0.06079108"
           id="path888"
           inkscape:connector-curvature="0" />
        <path
           d="m 118.78258,100.04989 h -1.40795 q 0.0362,0.2681 0.2237,0.43258 0.18915,0.16284 0.46711,0.16284 0.15462,0 0.32404,-0.051 0.1694,-0.051 0.27632,-0.13488 0.0312,-0.0247 0.0542,-0.0247 0.0264,0 0.046,0.0213 0.0197,0.0197 0.0197,0.0477 0,0.028 -0.0264,0.0543 -0.0789,0.0822 -0.28126,0.15461 -0.20067,0.0707 -0.41284,0.0707 -0.35529,0 -0.59377,-0.23192 -0.23686,-0.23356 -0.23686,-0.564164 0,-0.300993 0.22205,-0.516466 0.22369,-0.215464 0.55265,-0.215464 0.33883,0 0.55759,0.222046 0.21876,0.220403 0.21546,0.572388 z m -0.13981,-0.139809 q -0.0411,-0.228627 -0.21711,-0.371727 -0.17435,-0.143093 -0.41613,-0.143093 -0.24179,0 -0.41614,0.141449 -0.17435,0.141456 -0.21712,0.373371 z"
           style="font-style:normal;font-variant:normal;font-weight:normal;font-stretch:normal;font-size:4.93888903px;line-height:0;font-family:'Courier New';-inkscape-font-specification:'Courier New';text-align:start;letter-spacing:0px;text-anchor:start;fill:#ffffff;stroke-width:0.06079108"
           id="path890"
           inkscape:connector-curvature="0" />
        <path
           d="m 119.60827,99.304794 v 0.20889 q 0.14474,-0.146387 0.26152,-0.202308 0.11678,-0.05592 0.26317,-0.05592 0.15789,0 0.28783,0.06745 0.0921,0.04938 0.16612,0.164481 0.0757,0.113486 0.0757,0.233561 v 0.870092 h 0.11678 q 0.0493,0 0.0707,0.0197 0.0215,0.0181 0.0215,0.0493 0,0.0296 -0.0215,0.0494 -0.0215,0.0197 -0.0707,0.0197 h -0.37008 q -0.0509,0 -0.0724,-0.0197 -0.0215,-0.0197 -0.0215,-0.0494 0,-0.0312 0.0215,-0.0493 0.0215,-0.0197 0.0724,-0.0197 h 0.11514 v -0.847067 q 0,-0.146388 -0.10692,-0.246716 -0.1069,-0.101979 -0.28618,-0.101979 -0.13652,0 -0.23686,0.05592 -0.10033,0.05429 -0.28619,0.273037 v 0.866805 h 0.15626 q 0.0494,0 0.0707,0.0197 0.0214,0.0181 0.0214,0.0493 0,0.0296 -0.0214,0.0494 -0.0214,0.0197 -0.0707,0.0197 h -0.45068 q -0.0494,0 -0.0707,-0.0197 -0.0215,-0.0197 -0.0215,-0.0494 0,-0.0312 0.0215,-0.0493 0.0214,-0.0197 0.0707,-0.0197 h 0.15626 v -1.146416 h -0.11678 q -0.0494,0 -0.0707,-0.01971 -0.0214,-0.01971 -0.0214,-0.05102 0,-0.0296 0.0214,-0.04938 0.0215,-0.01971 0.0707,-0.01971 z"
           style="font-style:normal;font-variant:normal;font-weight:normal;font-stretch:normal;font-size:4.93888903px;line-height:0;font-family:'Courier New';-inkscape-font-specification:'Courier New';text-align:start;letter-spacing:0px;text-anchor:start;fill:#ffffff;stroke-width:0.06079108"
           id="path892"
           inkscape:connector-curvature="0" />
        <path
           d="m 122.65114,99.444607 v -0.04604 q 0,-0.05102 0.0197,-0.07238 0.0198,-0.02135 0.0494,-0.02135 0.0313,0 0.0509,0.02135 0.0198,0.02141 0.0198,0.07238 v 0.312513 q -0.002,0.05102 -0.0215,0.07237 -0.0181,0.02142 -0.0493,0.02142 -0.028,0 -0.0477,-0.01807 -0.0181,-0.01971 -0.0214,-0.06411 -0.01,-0.11678 -0.15461,-0.222047 -0.1431,-0.105267 -0.38653,-0.105267 -0.30757,0 -0.46712,0.192439 -0.15954,0.192446 -0.15954,0.440805 0,0.26811 0.17599,0.44245 0.17599,0.17435 0.45561,0.17435 0.16118,0 0.32731,-0.0592 0.16777,-0.0592 0.30264,-0.19079 0.0345,-0.0329 0.0609,-0.0329 0.028,0 0.046,0.0197 0.0198,0.0181 0.0198,0.046 0,0.0707 -0.16613,0.17928 -0.2681,0.17599 -0.59706,0.17599 -0.33389,0 -0.54936,-0.21217 -0.21383,-0.21382 -0.21383,-0.54114 0,-0.333892 0.21876,-0.554296 0.2204,-0.220402 0.5543,-0.220402 0.31744,0 0.53291,0.189151 z"
           style="font-style:normal;font-variant:normal;font-weight:normal;font-stretch:normal;font-size:4.93888903px;line-height:0;font-family:'Courier New';-inkscape-font-specification:'Courier New';text-align:start;letter-spacing:0px;text-anchor:start;fill:#ffffff;stroke-width:0.06079108"
           id="path894"
           inkscape:connector-curvature="0" />
        <path
           d="m 123.92914,99.304794 v 0.348696 q 0.26974,-0.243429 0.40298,-0.312506 0.13486,-0.07073 0.24835,-0.07073 0.12336,0 0.22863,0.08388 0.10692,0.08224 0.10692,0.125005 0,0.03124 -0.0215,0.05265 -0.0198,0.01971 -0.051,0.01971 -0.0164,0 -0.028,-0.0047 -0.0115,-0.0068 -0.0427,-0.03785 -0.0576,-0.05757 -0.10034,-0.07895 -0.0427,-0.02142 -0.0839,-0.02142 -0.0905,0 -0.21876,0.07238 -0.12664,0.07237 -0.4408,0.353633 v 0.756608 h 0.61186 q 0.051,0 0.0724,0.0197 0.0214,0.0181 0.0214,0.0493 0,0.0296 -0.0214,0.0494 -0.0215,0.0197 -0.0724,0.0197 h -1.08391 q -0.0494,0 -0.0707,-0.0181 -0.0215,-0.0197 -0.0215,-0.0494 0,-0.028 0.0198,-0.046 0.0214,-0.0197 0.0724,-0.0197 h 0.33389 v -1.151356 h -0.25495 q -0.0494,0 -0.0707,-0.01971 -0.0214,-0.01971 -0.0214,-0.05102 0,-0.0296 0.0198,-0.04938 0.0213,-0.01971 0.0724,-0.01971 z"
           style="font-style:normal;font-variant:normal;font-weight:normal;font-stretch:normal;font-size:4.93888903px;line-height:0;font-family:'Courier New';-inkscape-font-specification:'Courier New';text-align:start;letter-spacing:0px;text-anchor:start;fill:#ffffff;stroke-width:0.06079108"
           id="path896"
           inkscape:connector-curvature="0" />
        <path
           d="m 126.1233,100.72919 -0.64147,-1.284583 h -0.0411 q -0.0494,0 -0.0707,-0.01971 -0.0215,-0.01971 -0.0215,-0.04938 0,-0.02135 0.01,-0.03785 0.0115,-0.01807 0.028,-0.02469 0.0181,-0.0082 0.0542,-0.0082 h 0.3783 q 0.0493,0 0.0707,0.01971 0.0215,0.01971 0.0215,0.05102 0,0.0296 -0.0215,0.04938 -0.0215,0.01971 -0.0707,0.01971 h -0.18588 l 0.56416,1.133263 0.55595,-1.133263 h -0.18587 q -0.0494,0 -0.0707,-0.01971 -0.0214,-0.01971 -0.0214,-0.05102 0,-0.0296 0.0214,-0.04938 0.0215,-0.01971 0.0707,-0.01971 h 0.37666 q 0.051,0 0.0724,0.01971 0.0214,0.01971 0.0214,0.05102 0,0.02142 -0.0131,0.03949 -0.0131,0.01808 -0.0296,0.02469 -0.0164,0.0047 -0.0921,0.0047 l -0.87503,1.781303 h 0.21546 q 0.0494,0 0.0707,0.0181 0.0215,0.0197 0.0215,0.051 0,0.0296 -0.0215,0.0494 -0.0215,0.0197 -0.0707,0.0197 h -0.79608 q -0.0493,0 -0.0707,-0.0197 -0.0215,-0.0181 -0.0215,-0.0494 0,-0.0312 0.0215,-0.051 0.0215,-0.0181 0.0707,-0.0181 h 0.43259 z"
           style="font-style:normal;font-variant:normal;font-weight:normal;font-stretch:normal;font-size:4.93888903px;line-height:0;font-family:'Courier New';-inkscape-font-specification:'Courier New';text-align:start;letter-spacing:0px;text-anchor:start;fill:#ffffff;stroke-width:0.06079108"
           id="path898"
           inkscape:connector-curvature="0" />
        <path
           d="m 127.61348,99.304794 v 0.251654 q 0.12335,-0.149674 0.26481,-0.225333 0.14145,-0.07566 0.3339,-0.07566 0.20395,0 0.37665,0.0954 0.17271,0.0954 0.26646,0.266454 0.0954,0.169413 0.0954,0.356921 0,0.29771 -0.21382,0.50989 -0.21217,0.21053 -0.52304,0.21053 -0.37008,0 -0.60035,-0.301 v 0.83227 h 0.33554 q 0.0493,0 0.0707,0.0181 0.0214,0.0197 0.0214,0.051 0,0.0296 -0.0214,0.0494 -0.0214,0.0197 -0.0707,0.0197 h -0.65957 q -0.0494,0 -0.0707,-0.0197 -0.0215,-0.0181 -0.0215,-0.0494 0,-0.0312 0.0215,-0.051 0.0215,-0.0181 0.0707,-0.0181 h 0.18587 v -1.781311 h -0.18587 q -0.0494,0 -0.0707,-0.01971 -0.0215,-0.01971 -0.0215,-0.05102 0,-0.0296 0.0215,-0.04938 0.0215,-0.01971 0.0707,-0.01971 z m 1.1974,0.669434 q 0,-0.238497 -0.17434,-0.407911 -0.1727,-0.171056 -0.42271,-0.171056 -0.25166,0 -0.426,0.171056 -0.17435,0.171058 -0.17435,0.407911 0,0.238502 0.17435,0.409552 0.17434,0.17106 0.426,0.17106 0.24837,0 0.42271,-0.16941 0.17434,-0.17106 0.17434,-0.411202 z"
           style="font-style:normal;font-variant:normal;font-weight:normal;font-stretch:normal;font-size:4.93888903px;line-height:0;font-family:'Courier New';-inkscape-font-specification:'Courier New';text-align:start;letter-spacing:0px;text-anchor:start;fill:#ffffff;stroke-width:0.06079108"
           id="path900"
           inkscape:connector-curvature="0" />
        <path
           d="m 129.87014,99.304794 h 0.75002 q 0.0494,0 0.0707,0.01971 0.0215,0.01971 0.0215,0.05102 0,0.0296 -0.0215,0.04938 -0.0214,0.01971 -0.0707,0.01971 h -0.75002 v 0.919436 q 0,0.12008 0.0954,0.20067 0.097,0.0806 0.28291,0.0806 0.13981,0 0.30264,-0.0411 0.16283,-0.0428 0.2533,-0.0954 0.0329,-0.0214 0.0543,-0.0214 0.0264,0 0.046,0.0214 0.0197,0.0197 0.0197,0.0477 0,0.0247 -0.0214,0.046 -0.0526,0.0543 -0.25659,0.11842 -0.2023,0.0625 -0.38816,0.0625 -0.24179,0 -0.38489,-0.11349 -0.1431,-0.1135 -0.1431,-0.30593 v -0.919441 h -0.25494 q -0.0494,0 -0.0707,-0.01971 -0.0214,-0.01971 -0.0214,-0.05102 0,-0.0296 0.0214,-0.04938 0.0215,-0.01971 0.0707,-0.01971 h 0.25494 v -0.40791 q 0,-0.04931 0.0197,-0.07072 0.0198,-0.02142 0.0494,-0.02142 0.0313,0 0.051,0.02142 0.0198,0.02142 0.0198,0.07072 z"
           style="font-style:normal;font-variant:normal;font-weight:normal;font-stretch:normal;font-size:4.93888903px;line-height:0;font-family:'Courier New';-inkscape-font-specification:'Courier New';text-align:start;letter-spacing:0px;text-anchor:start;fill:#ffffff;stroke-width:0.06079108"
           id="path902"
           inkscape:connector-curvature="0" />
        <path
           d="m 132.24192,98.595892 v 0.35692 h -0.20394 v -0.35692 z m 0.004,0.708902 v 1.286236 h 0.54277 q 0.0509,0 0.0724,0.0197 0.0214,0.0181 0.0214,0.0493 0,0.0296 -0.0214,0.0494 -0.0215,0.0197 -0.0724,0.0197 h -1.22372 q -0.0494,0 -0.0707,-0.0197 -0.0214,-0.0197 -0.0214,-0.0494 0,-0.0312 0.0214,-0.0493 0.0215,-0.0197 0.0707,-0.0197 h 0.54278 v -1.146423 h -0.40297 q -0.0493,0 -0.0724,-0.01971 -0.0214,-0.01971 -0.0214,-0.04938 0,-0.03124 0.0214,-0.05102 0.0214,-0.01971 0.0724,-0.01971 z"
           style="font-style:normal;font-variant:normal;font-weight:normal;font-stretch:normal;font-size:4.93888903px;line-height:0;font-family:'Courier New';-inkscape-font-specification:'Courier New';text-align:start;letter-spacing:0px;text-anchor:start;fill:#ffffff;stroke-width:0.06079108"
           id="path904"
           inkscape:connector-curvature="0" />
        <path
           d="m 133.74692,99.304794 v 0.20889 q 0.14474,-0.146387 0.26152,-0.202308 0.11678,-0.05592 0.26317,-0.05592 0.15789,0 0.28783,0.06745 0.0921,0.04938 0.16612,0.164481 0.0757,0.113486 0.0757,0.233561 v 0.870092 h 0.11678 q 0.0493,0 0.0707,0.0197 0.0214,0.0181 0.0214,0.0493 0,0.0296 -0.0214,0.0494 -0.0214,0.0197 -0.0707,0.0197 h -0.37008 q -0.051,0 -0.0724,-0.0197 -0.0214,-0.0197 -0.0214,-0.0494 0,-0.0312 0.0214,-0.0493 0.0215,-0.0197 0.0724,-0.0197 h 0.11514 v -0.847067 q 0,-0.146388 -0.10691,-0.246716 -0.10691,-0.101979 -0.28619,-0.101979 -0.13652,0 -0.23686,0.05592 -0.10033,0.05429 -0.28619,0.273037 v 0.866805 h 0.15626 q 0.0494,0 0.0707,0.0197 0.0214,0.0181 0.0214,0.0493 0,0.0296 -0.0214,0.0494 -0.0214,0.0197 -0.0707,0.0197 h -0.45067 q -0.0494,0 -0.0707,-0.0197 -0.0214,-0.0197 -0.0214,-0.0494 0,-0.0312 0.0214,-0.0493 0.0215,-0.0197 0.0707,-0.0197 h 0.15625 v -1.146416 h -0.11678 q -0.0494,0 -0.0707,-0.01971 -0.0214,-0.01971 -0.0214,-0.05102 0,-0.0296 0.0214,-0.04938 0.0215,-0.01971 0.0707,-0.01971 z"
           style="font-style:normal;font-variant:normal;font-weight:normal;font-stretch:normal;font-size:4.93888903px;line-height:0;font-family:'Courier New';-inkscape-font-specification:'Courier New';text-align:start;letter-spacing:0px;text-anchor:start;fill:#ffffff;stroke-width:0.06079108"
           id="path906"
           inkscape:connector-curvature="0" />
        <path
           d="m 136.67794,99.558092 v -0.253298 h 0.32402 q 0.0494,0 0.0707,0.01971 0.0215,0.01971 0.0215,0.05102 0,0.0296 -0.0215,0.04938 -0.0214,0.01971 -0.0707,0.01971 h -0.18587 v 1.379976 q 0,0.13817 -0.0592,0.24673 -0.0395,0.0724 -0.13159,0.14967 -0.0921,0.0773 -0.16777,0.1102 -0.0757,0.0329 -0.20231,0.0329 h -0.39146 q -0.0494,0 -0.0707,-0.0197 -0.0214,-0.0181 -0.0214,-0.0494 0,-0.0312 0.0214,-0.051 0.0215,-0.0197 0.0707,-0.0197 l 0.39639,0.001 q 0.12171,0 0.21876,-0.0625 0.0987,-0.0625 0.16284,-0.18257 0.0362,-0.0691 0.0362,-0.17599 v -0.41449 q -0.22204,0.30429 -0.57238,0.30429 -0.28455,0 -0.49179,-0.21054 -0.20561,-0.21218 -0.20561,-0.509885 0,-0.297705 0.20561,-0.508239 0.20724,-0.210533 0.49179,-0.210533 0.35034,0 0.57238,0.302636 z m 0,0.416136 q 0,-0.243428 -0.16777,-0.411198 -0.16613,-0.167769 -0.39804,-0.167769 -0.23192,0 -0.39805,0.169413 -0.16612,0.16777 -0.16612,0.409554 0,0.243432 0.16612,0.412842 0.16613,0.16777 0.39805,0.16777 0.23191,0 0.39804,-0.16777 0.16777,-0.16941 0.16777,-0.412842 z"
           style="font-style:normal;font-variant:normal;font-weight:normal;font-stretch:normal;font-size:4.93888903px;line-height:0;font-family:'Courier New';-inkscape-font-specification:'Courier New';text-align:start;letter-spacing:0px;text-anchor:start;fill:#ffffff;stroke-width:0.06079108"
           id="path908"
           inkscape:connector-curvature="0" />
        <path
           d="m 110.79288,106.08168 -0.17106,0.002 -0.30429,-0.8882 -0.30264,0.8882 -0.17106,-0.002 -0.28619,-1.28458 h -0.0675 q -0.0494,0 -0.0707,-0.0197 -0.0215,-0.0198 -0.0215,-0.0509 0,-0.0296 0.0215,-0.0494 0.0215,-0.0198 0.0707,-0.0198 h 0.37994 q 0.0494,0 0.0707,0.0198 0.0214,0.0198 0.0214,0.051 0,0.0296 -0.0214,0.0493 -0.0215,0.0197 -0.0707,0.0197 h -0.17599 l 0.24508,1.09543 0.29442,-0.87504 h 0.16447 l 0.30265,0.87504 0.2352,-1.09543 h -0.17435 q -0.0494,0 -0.0724,-0.0197 -0.0215,-0.0198 -0.0215,-0.0509 0,-0.0296 0.0215,-0.0494 0.0214,-0.0198 0.0724,-0.0198 h 0.37831 q 0.051,0 0.0724,0.0198 0.0215,0.0198 0.0215,0.051 0,0.0296 -0.0215,0.0493 -0.0215,0.0197 -0.0724,0.0197 h -0.0659 z"
           style="font-style:normal;font-variant:normal;font-weight:normal;font-stretch:normal;font-size:4.93888903px;line-height:0;font-family:'Courier New';-inkscape-font-specification:'Courier New';letter-spacing:0px;fill:#ffffff;stroke-width:0.06079108"
           id="path910"
           inkscape:connector-curvature="0" />
        <path
           d="m 112.40478,103.94838 v 0.35692 h -0.20396 v -0.35692 z m 0.004,0.70891 v 1.28622 h 0.54278 q 0.051,0 0.0724,0.0198 0.0215,0.0181 0.0215,0.0494 0,0.0296 -0.0215,0.0494 -0.0214,0.0198 -0.0724,0.0198 h -1.22373 q -0.0494,0 -0.0707,-0.0198 -0.0214,-0.0198 -0.0214,-0.0494 0,-0.0312 0.0214,-0.0494 0.0215,-0.0198 0.0707,-0.0198 h 0.54278 v -1.14641 h -0.40297 q -0.0493,0 -0.0724,-0.0197 -0.0214,-0.0198 -0.0214,-0.0493 0,-0.0313 0.0214,-0.051 0.0215,-0.0198 0.0724,-0.0198 z"
           style="font-style:normal;font-variant:normal;font-weight:normal;font-stretch:normal;font-size:4.93888903px;line-height:0;font-family:'Courier New';-inkscape-font-specification:'Courier New';letter-spacing:0px;fill:#ffffff;stroke-width:0.06079108"
           id="path912"
           inkscape:connector-curvature="0" />
        <path
           d="m 114.07259,104.65729 h 0.75003 q 0.0494,0 0.0707,0.0198 0.0215,0.0197 0.0215,0.051 0,0.0296 -0.0215,0.0493 -0.0215,0.0198 -0.0707,0.0198 h -0.75003 v 0.91945 q 0,0.12006 0.0954,0.20066 0.097,0.0806 0.2829,0.0806 0.13982,0 0.30265,-0.0411 0.16284,-0.0428 0.2533,-0.0954 0.0329,-0.0214 0.0542,-0.0214 0.0264,0 0.046,0.0214 0.0198,0.0198 0.0198,0.0476 0,0.0247 -0.0214,0.046 -0.0526,0.0542 -0.25659,0.11841 -0.20231,0.0625 -0.38818,0.0625 -0.24178,0 -0.38488,-0.11349 -0.1431,-0.11351 -0.1431,-0.30594 v -0.91944 h -0.25493 q -0.0494,0 -0.0707,-0.0198 -0.0214,-0.0197 -0.0214,-0.0509 0,-0.0296 0.0214,-0.0494 0.0215,-0.0198 0.0707,-0.0198 h 0.25493 v -0.40791 q 0,-0.0494 0.0198,-0.0707 0.0198,-0.0215 0.0494,-0.0215 0.0312,0 0.0509,0.0215 0.0197,0.0214 0.0197,0.0707 z"
           style="font-style:normal;font-variant:normal;font-weight:normal;font-stretch:normal;font-size:4.93888903px;line-height:0;font-family:'Courier New';-inkscape-font-specification:'Courier New';letter-spacing:0px;fill:#ffffff;stroke-width:0.06079108"
           id="path914"
           inkscape:connector-curvature="0" />
        <path
           d="m 115.92135,104.01746 v 0.85036 q 0.13158,-0.1431 0.25165,-0.20067 0.12171,-0.0592 0.27138,-0.0592 0.1612,0 0.27304,0.0576 0.1135,0.0559 0.18915,0.17434 0.0757,0.11678 0.0757,0.24673 v 0.85693 h 0.15461 q 0.051,0 0.0708,0.0197 0.0215,0.0181 0.0215,0.0494 0,0.0296 -0.0215,0.0494 -0.0197,0.0198 -0.0708,0.0198 h -0.44903 q -0.051,0 -0.0724,-0.0198 -0.0215,-0.0197 -0.0215,-0.0494 0,-0.0312 0.0215,-0.0494 0.0215,-0.0197 0.0724,-0.0197 h 0.15461 v -0.84707 q 0,-0.14967 -0.10855,-0.25001 -0.10691,-0.10034 -0.29936,-0.10034 -0.15132,0 -0.25823,0.074 -0.0773,0.0526 -0.25494,0.24836 v 0.87503 h 0.15626 q 0.0494,0 0.0707,0.0197 0.0214,0.0181 0.0214,0.0494 0,0.0296 -0.0214,0.0494 -0.0214,0.0198 -0.0707,0.0198 h -0.45068 q -0.0493,0 -0.0707,-0.0198 -0.0214,-0.0198 -0.0214,-0.0494 0,-0.0312 0.0214,-0.0494 0.0214,-0.0197 0.0707,-0.0197 h 0.15625 v -1.78625 h -0.18585 q -0.0494,0 -0.0707,-0.0198 -0.0215,-0.0197 -0.0215,-0.0509 0,-0.0296 0.0215,-0.0494 0.0214,-0.0198 0.0707,-0.0198 z"
           style="font-style:normal;font-variant:normal;font-weight:normal;font-stretch:normal;font-size:4.93888903px;line-height:0;font-family:'Courier New';-inkscape-font-specification:'Courier New';letter-spacing:0px;fill:#ffffff;stroke-width:0.06079108"
           id="path916"
           inkscape:connector-curvature="0" />
        <path
           d="m 120.81296,106.08168 v -0.19902 q -0.301,0.2533 -0.64311,0.2533 -0.24836,0 -0.38817,-0.125 -0.13981,-0.12666 -0.13981,-0.30923 0,-0.20066 0.18421,-0.35034 0.18422,-0.14967 0.53785,-0.14967 0.0954,0 0.20725,0.0131 0.11184,0.0115 0.24178,0.0379 v -0.22369 q 0,-0.11349 -0.10527,-0.19738 -0.10526,-0.0839 -0.31579,-0.0839 -0.1612,0 -0.45233,0.0938 -0.0526,0.0164 -0.0675,0.0164 -0.0264,0 -0.046,-0.0198 -0.0181,-0.0197 -0.0181,-0.0494 0,-0.028 0.0164,-0.0444 0.0231,-0.0247 0.18586,-0.0675 0.25659,-0.0691 0.38818,-0.0691 0.26152,0 0.40791,0.12994 0.14638,0.12829 0.14638,0.29112 v 0.91451 h 0.18422 q 0.051,0 0.0724,0.0198 0.0215,0.0181 0.0215,0.0494 0,0.0296 -0.0215,0.0494 -0.0215,0.0198 -0.0724,0.0198 z m 0,-0.68753 q -0.097,-0.028 -0.2056,-0.0411 -0.10855,-0.0131 -0.22863,-0.0131 -0.30099,0 -0.47041,0.12993 -0.12829,0.097 -0.12829,0.23192 0,0.12501 0.097,0.21054 0.0987,0.0855 0.2862,0.0855 0.17928,0 0.33224,-0.0708 0.15462,-0.0724 0.31745,-0.22862 z"
           style="font-style:normal;font-variant:normal;font-weight:normal;font-stretch:normal;font-size:4.93888903px;line-height:0;font-family:'Courier New';-inkscape-font-specification:'Courier New';letter-spacing:0px;fill:#ffffff;stroke-width:0.06079108"
           id="path918"
           inkscape:connector-curvature="0" />
        <path
           d="m 124.17493,105.46653 v 0.61515 h -0.32404 q -0.0494,0 -0.0707,-0.0198 -0.0214,-0.0198 -0.0214,-0.0494 0,-0.0313 0.0214,-0.0494 0.0214,-0.0198 0.0707,-0.0198 h 0.18587 v -1.78624 h -0.18587 q -0.0494,0 -0.0707,-0.0197 -0.0214,-0.0197 -0.0214,-0.0509 0,-0.0296 0.0214,-0.0494 0.0214,-0.0198 0.0707,-0.0198 h 0.32404 v 1.27307 l 0.58718,-0.49344 h -0.0707 q -0.0494,0 -0.0707,-0.0198 -0.0215,-0.0197 -0.0215,-0.0493 0,-0.0312 0.0215,-0.051 0.0215,-0.0198 0.0707,-0.0198 h 0.44245 q 0.051,0 0.0724,0.0198 0.0215,0.0198 0.0215,0.051 0,0.0296 -0.0215,0.0493 -0.0215,0.0198 -0.0724,0.0198 h -0.15955 l -0.53949,0.45068 0.68259,0.69575 h 0.15955 q 0.051,0 0.0724,0.0197 0.0214,0.018 0.0214,0.0494 0,0.0296 -0.0214,0.0494 -0.0215,0.0197 -0.0724,0.0197 h -0.44739 q -0.0494,0 -0.0708,-0.0197 -0.0215,-0.0197 -0.0215,-0.0494 0,-0.0313 0.0215,-0.0494 0.0214,-0.0197 0.0708,-0.0197 h 0.097 l -0.59376,-0.61022 z"
           style="font-style:normal;font-variant:normal;font-weight:normal;font-stretch:normal;font-size:4.93888903px;line-height:0;font-family:'Courier New';-inkscape-font-specification:'Courier New';letter-spacing:0px;fill:#ffffff;stroke-width:0.06079108"
           id="path920"
           inkscape:connector-curvature="0" />
        <path
           d="m 127.22273,105.40238 h -1.40795 q 0.0362,0.2681 0.22369,0.43258 0.18915,0.16283 0.46712,0.16283 0.15461,0 0.32403,-0.051 0.16941,-0.051 0.27633,-0.13488 0.0313,-0.0247 0.0543,-0.0247 0.0264,0 0.046,0.0214 0.0197,0.0198 0.0197,0.0477 0,0.028 -0.0264,0.0543 -0.0789,0.0822 -0.28126,0.1546 -0.20066,0.0707 -0.41284,0.0707 -0.35528,0 -0.59377,-0.23192 -0.23685,-0.23356 -0.23685,-0.56416 0,-0.301 0.22204,-0.51646 0.2237,-0.21548 0.55265,-0.21548 0.33883,0 0.55759,0.22205 0.21876,0.2204 0.21547,0.57239 z m -0.13981,-0.13981 q -0.0411,-0.22862 -0.21712,-0.37172 -0.17435,-0.1431 -0.41613,-0.1431 -0.24179,0 -0.41613,0.14145 -0.17436,0.14146 -0.21712,0.37337 z"
           style="font-style:normal;font-variant:normal;font-weight:normal;font-stretch:normal;font-size:4.93888903px;line-height:0;font-family:'Courier New';-inkscape-font-specification:'Courier New';letter-spacing:0px;fill:#ffffff;stroke-width:0.06079108"
           id="path922"
           inkscape:connector-curvature="0" />
        <path
           d="m 128.50402,106.08168 -0.64147,-1.28458 h -0.0411 q -0.0494,0 -0.0707,-0.0197 -0.0215,-0.0198 -0.0215,-0.0493 0,-0.0215 0.01,-0.0379 0.0115,-0.0181 0.028,-0.0247 0.0181,-0.008 0.0543,-0.008 h 0.37831 q 0.0494,0 0.0707,0.0198 0.0215,0.0198 0.0215,0.051 0,0.0296 -0.0215,0.0493 -0.0214,0.0197 -0.0707,0.0197 h -0.18585 l 0.56415,1.13326 0.55595,-1.13326 h -0.18586 q -0.0494,0 -0.0707,-0.0197 -0.0214,-0.0198 -0.0214,-0.0509 0,-0.0296 0.0214,-0.0494 0.0215,-0.0198 0.0707,-0.0198 h 0.37665 q 0.051,0 0.0724,0.0198 0.0214,0.0198 0.0214,0.051 0,0.0214 -0.0131,0.0395 -0.0131,0.0181 -0.0296,0.0247 -0.0164,0.004 -0.0921,0.004 l -0.87502,1.78132 h 0.21546 q 0.0493,0 0.0707,0.0181 0.0214,0.0197 0.0214,0.051 0,0.0296 -0.0214,0.0493 -0.0215,0.0197 -0.0707,0.0197 h -0.79608 q -0.0494,0 -0.0707,-0.0197 -0.0215,-0.0181 -0.0215,-0.0493 0,-0.0313 0.0215,-0.051 0.0215,-0.0181 0.0707,-0.0181 h 0.43259 z"
           style="font-style:normal;font-variant:normal;font-weight:normal;font-stretch:normal;font-size:4.93888903px;line-height:0;font-family:'Courier New';-inkscape-font-specification:'Courier New';letter-spacing:0px;fill:#ffffff;stroke-width:0.06079108"
           id="path924"
           inkscape:connector-curvature="0" />
      </g>
    </g>
  </g>
</svg>
